<svg id="Layer_1" data-name="Layer 1" xmlns="http://www.w3.org/2000/svg" viewBox="0 0 336.38 355.78"><defs><style>.cls-1{fill-rule:evenodd;}</style></defs><g id="Layer_1-2" data-name="Layer_1"><path class="cls-1" d="M148.87,273.09l31.44,31.79c-2.46,3.58-8.51,7.21-8.51,12.68,0,7.59,5,7.12,6.26,11.81-5.51.12-13.74,2.78-23.63,2.78-9.5,0-19.56-.08-28.67-1.9a24,24,0,0,0-6.07-.88c2.36-3.52,7-5.33,7-11.12,0-5.24-6.45-11.7-9.73-13.9,1.77-2.64,27.31-28.15,32-31.26Zm61.93,82.69h-1.66c-9.79-.91-17-17.38-22-17.38l-18.18,3.36c-16.33,2.32-46.58,1.55-58.26-4.05-2,3-6.7,7.05-9.55,9.9-2.65,2.65-6.71,8.17-11.29,8.17-7.94,0-9.89-4-14.77-8.86L8.68,280.56C-.66,271.22-3.76,267.6,5.9,258s8.55-5.4,4.25-18.49c-5.56-16.91-5.82-30.28-5.82-47.7,0-28.6,12.37-57.84,27.5-78.81,31.33-43.42,86.82-69,146.62-57.09,12.82,2.55,19.33,6.12,24.61,7.35,0-12.93,1.11-23.21,3.75-33.78C212.4,7,216.69,13.9,225.3,13.9c5.18,0,16.31-5.17,20.62-7.18C251.09,4.31,260,0,267,0c24.2,0,34.21,13.9,47.94,13.9,2.55,0,4.65-1.36,7.31-1,7.31,1,8.31,8.62,10.15,14.81,9.39,31.65,1.76,72.18-18.69,95.44-5.66,6.43-21,22.31-27.95,24.16.15,6.83,14.6,34,5.39,80.44-5.44,27.39-10.95,17.94,1.38,30.22,8.38,8.35,7.77,12.06-1.74,21.54L271.34,299c-2.4,2.4-6.68,8.17-10.6,8.17-5,0-5.56-2-5.56-6.26,0-2.94,28-27.33,31.8-33.18L259.87,241l-77.13,76.78L210,344.66c5.87-3.94,29.08-30.58,32-30.58,3.3,0,6.25.22,6.25,4.86,0,4.9-4.87,8-8.16,11.29L216.6,353.32a11.32,11.32,0,0,1-5.8,2.45ZM11.12,267.7l5.31-5.46.34-.35L27.44,251c1.58-1.47,2.25-1.66,3.84-3.11,2.47-2.26,3.71-5,6.41-6.79,3.38.9,36.74,35.69,39.09,38.05l19.46,19.45,9.72,9.73c2.86,2.86,7.53,6.88,9.56,9.91L88.59,344.83,11.12,267.7Zm42.56-73.14c0-5.06,4-9.72,10.42-9.72,4.92,0,11.37,8.24,14.42,11.29,4.94,4.94,11.29,8.94,11.29,15.81,0,4.31-4.9,9-9,9-6.44,0-11.83-7.31-15.46-10.94-3.26-3.26-11.64-10.06-11.64-15.47Zm25-37.52c5.55,0,17.48,13.66,22.41,18.59s18.59,16.9,18.59,22.41a9.46,9.46,0,0,1-9.73,9.73c-6.6,0-11.44-6.93-15.11-10.6-4.42-4.41-23.29-22.42-25.19-26.25-3.34-6.73,1.18-13.88,9-13.88Zm11.12-11.12c0-9.48,9.2-12.92,16.41-7.37l36.23,36c12.73,12.55-.94,23.86-11,16.54-4.17-3.05-10.66-10.38-14.74-14.45l-14.25-14.24c-3.32-3.25-12.67-11.21-12.67-16.51Zm106.31-2.77c4.38,0,4.74-4.17,10.43-4.17,6.22,0,9.73,4.1,9.73,10.42,0,4.49-7.55,9.24-2.62,13.73,5.14,4.67,8-2.61,13-2.61,3,0,6.13-.15,8.48,2.63,6.26,7.42-.73,13.23-1.52,15.49-1.18,3.44.44,6.89,6.24,6.89,2.19,0,4.1-4.17,9-4.17,6.21,0,9.72,4.11,9.72,10.42,0,8.26-41.69,40.05-41.69,46.56,0,3.32.62,6.26,6.26,6.26,2.28,0,9.34-8.77,11.81-10.43l8.19,7.8L188,297.58l-29.53-29.89c8.69-1.31,2.66-1.58,14.07-1.56,4.92,0,11.18.34,15.95,0,6-.46,20.88-4.72,20.88-10.4,0-3.9-2.4-5.56-5.56-5.56s-6.34,3.43-14.08,4.68c-14.28,2.31-31.49-5.44-51.09,12.84l-6.9,6.3c-5.92,6.25-16.58,18.81-22.44,22.74l-53-53.34,13.9-14.24c5.77,1.59,1.75,2.26,11.29,2.26,8.42,0,17.44-7.16,18.06-14.59,3.83.08,13.62,6,23.11-2.61,3-2.66,6.66-6.14,6.77-11.29,5.66.47,13.39,5.16,23.48-5a20.09,20.09,0,0,0,5.71-14.44c0-2.62-.46-1.31-.7-4.17,16.64-3.88,23-19.27,13.5-33-2.63-3.8-6.32-6-8.63-9.43,2-3,7.64-8,10.59-10.95,3.4-3.4,7-9,13.38-8.12,6.07.88,10,6.48,7.92,12.69-1.18,3.5-3.79,3.65-3.91,7.15a5.24,5.24,0,0,0,5.37,5.48Zm-84.77-17.38c0-6.62.26-7.58,7-11.11,0,13.39,5.17,23.48,18,27.13,10,2.84,13.1-2.91,19.33,3.6,4.15,4.34,9.19,7.06,9.19,14.43,0,5.25-4.43,8.34-10.42,8.34-5.17,0-18.67-15.55-22.76-19.63-3.67-3.68-20.32-18.56-20.32-22.76Zm40.3,5.56c-8,0-13.88,1.2-18.28-3.25-4.93-5-5.67-15.51-1.17-15.51H160c3.23,0,5.63,2.21,6.95,4.17C165.94,118.23,153.69,131.33,151.65,131.33Zm-30.57-27.79c-11.94,0-20.85,9.2-20.85,21.54-6.65,0-11.37,1.57-15.83,6.41a22.09,22.09,0,0,0-5.71,14.43c-20,1.67-23.65,19.76-19.46,28.49-16.71,3.9-21.86,23.06-8.52,36.32,3,3,8.3,8.92,11.3,10.93L48.65,235.4c-4.56-3-3.69-5.4-11-5.4-8.59,0-9.48,9.38-16,11.12l-4.77-20.24A133.81,133.81,0,0,1,71.05,88.94C108,62.82,153,56.75,196,72.34c16.91,6.13,3.43,4.35,18.84,34C225.08,126,241.81,141.25,261,152c6.92,3.87,8,5.35,15.07,1.6,3.33,14.27,4.56,13.62,6.77,30.76a56.37,56.37,0,0,1,.17,6.09c.08,3.35.55,3.17.73,6.25.45,7.83-2.22,25.47-4.33,33.9-.64,2.54-2.43,8-2.64,10.56-7.27-1.94-5.58-11.12-18.07-11.12-3.75,0-5.38,2.66-7.64,4.17L242.51,226l23.22-23c8-10.69,4.54-30.95-17.49-32.79,0-12.68-8.69-20.84-20.85-20.84,0-12.52-9.32-21.27-21.54-21.54,0-8.47-3.68-15-11.08-18.8-9.24-4.78-16.24-.19-20.19.73-.79-2.94-3.88-4.46-6.52-6-6.29-3.63-36.23-3.1-40.93-1.15a17.07,17.07,0,0,1-2.86,1.25c-4,.79.41-.37-3.19-.37Zm93.11-42.39c0-11.43,1.44-28.26,5.56-36.83,3.23,0,4.8.27,6.5.18,21.27-1.14,32.36-20.81,56.45-11,20.69,8.42,17.36,10.83,37.8,10.83l3.18,13.5c3.41,16.83,1.94,38.38-4,53.82-6,15.76-16.45,29-29.31,39.48-3,2.43-18,13.5-21.11,13.08-.88-.13-9.29-5.24-10.52-6-1.88-1.23-2.92-2.17-4.85-3.48-22.06-15-39.74-43.75-39.74-73.53Z"/><g id="_2586691241056" data-name=" 2586691241056"><polygon points="237.16 81.44 237.16 107.37 246.18 107.37 246.18 81.44 237.16 81.44"/><polygon points="282.19 81.44 282.19 107.37 291.21 107.37 291.21 81.44 282.19 81.44"/><polygon points="239.68 107.37 291.21 107.37 291.21 98.34 239.68 98.34 239.68 107.37"/><polygon points="309.08 30.84 257.42 82.5 263.8 88.89 315.46 37.22 309.08 30.84"/><polygon points="270.04 82.44 240.46 52.86 234.08 59.24 263.65 88.82 270.04 82.44"/></g></g></svg>