<svg id="Layer_1" data-name="Layer 1" xmlns="http://www.w3.org/2000/svg" viewBox="0 0 469.92 467.33"><defs><style>.cls-1{fill-rule:evenodd;}</style></defs><g id="Layer_1-2" data-name="Layer_1"><g id="_2587260937024" data-name=" 2587260937024"><path class="cls-1" d="M167.83,118.77H157.5c1.11-49.62,69.71-53.95,69.71,7.75V142h15.5V126.52c0-62.23,68.62-56.52,69.71-7.75-25.28,0-16.93-.91-31-10.33a115.59,115.59,0,0,0-12.9,7.75c4.63,8.76,2.36,8.31,11.9,13.91,38.15,22.39,43.87-17.61,66.06,8.82,3.46,4.11,7.28,12.92,8.51,20,2.45,14.19-6,32.14-24.51,32.14-10.81,0-19.06-17.93-23.23-25.82-8,1.87-7.48,3.3-15.5,5.17,4.32,18.54,19.37,38.73,43.9,38.73,15.17,0,21.81-11.93,31-18.08,10,14.92,20.66,17.12,20.66,43.9,0,23-12.26,28.77-20.66,41.31-16.11-10.79-9.47-18.07-38.73-18.07-17.35,0-32.7,23.92-36.15,38.72a68.46,68.46,0,0,1,15.5,5.17c5.1-9.65,10.05-23.65,22.28-26.8,11.83-3.05,22.13,9.19,25,21,2.85,11.56-2.71,26.72-10.88,34.52-16.78,16-15.41-.32-41.6-.32-16,0-27.18,8.54-33.56,18.07,5.62,8.4,4.26,5.75,12.91,10.33,15.15-10.15,1.71-10.33,31-10.33-1.06,47.38-69.71,52.76-69.71-7.74V325.33h-15.5c0,31.61-1.47,59.38-38.73,59.38-18.34,0-30.56-17.41-31-36.15,9.08-.75,9-2.91,17.48.43,7,2.75,6.91,5.48,13.5,9.9,8.65-4.58,7.29-1.93,12.91-10.33C192.31,335,181,330.49,162.67,330.49c-17,0-17.51,15-35.22,1.72-22.91-17.17-11.8-60.31,11.17-57.3,13.15,1.73,19,17.64,24,27.18a67.72,67.72,0,0,1,15.49-5.16c-2.08-8.93-7.21-17.16-12.43-23.73-28.37-35.71-59.06.8-62.45,3.07-10-14.91-20.66-17.12-20.66-43.89,0-23,12.26-28.78,20.66-41.32,14.31,9.59,12.86,18.08,36.15,18.08,18.8,0,35.08-23.08,38.73-38.73-8-1.87-7.48-3.3-15.49-5.16-28.16,53.2-49.77,11.08-48.07-4.29,2-17.85,17-31.86,22.24-31.86,7.23,0,44.94,24.17,64.55-12.91a114.84,114.84,0,0,0-12.91-7.75c-7.18,4.82-8.92,10.33-20.65,10.33Zm-69.71,56.8c-40.62,21.49-49.05,83.35,0,116.19,0,24.18-.4,38.52,20.16,54.71,8.61,6.78,11.94,6.12,16.88,8.94,11.21,6.42,4.19,1.86,8.76,14.48,3,8.22,4.79,9.9,10.26,15.56,16.46,17,20.52,17.33,44.63,17.33,16.14,0,26.42-14.13,36.15-20.65,20.47,13.71,14.85,20.65,46.47,20.65,15.11,0,23.52-6.83,31.74-14.74,9.07-8.73,14.74-14.7,14.74-31.73,35.67-3,43.89-32.74,43.89-64.55,50.88-34.07,38.1-96,0-116.19,0-39.25-6-48.06-36.67-64-16.14-8.4-1-10.61-18.66-30.39-2.67-3-11.6-9.8-14.43-11.4-9.8-5.52-16.73-5.21-28.35-5.21-23.26,0-25.54,11.82-38.73,20.65-19-12.72-11.59-20.65-46.48-20.65-21,0-37,14-43.83,31-5.43,13.54,2,9.8-9.86,16C103.22,128,98.12,136,98.12,175.57Z"/><path class="cls-1" d="M188.48,237.54c0-69.39,93-69.39,93,0,0,57.52-93,57.52-93,0Zm-18.07-10.33c0,22.61,2.81,39,20.22,54.66,31.48,28.36,80.25,20.8,102.05-17.59,22.65-39.89-8.12-96.45-57.72-96.45-32.78,0-64.55,27.7-64.55,59.38Z"/><path class="cls-1" d="M237.54,242.7c-1.3,5.6-5.41,15.79-7.74,20.66,5.66,2.72,10.15,4.5,18.07,5.16,2.48-29.75,35.51-43.89-15.49-43.89,1.3-5.6,5.41-15.79,7.74-20.66-5.66-2.71-10.16-4.5-18.07-5.16-3.2,13.73-10,25-11.27,30.22-4,16.33,10.93,13.67,26.76,13.67Z"/><path class="cls-1" d="M64,71.72c2.92,9.38,26.43,31.56,34.14,36.72L109,98.69C106.13,89.38,82.9,67.34,74.88,62Z"/><path class="cls-1" d="M361.48,98.11,371.23,109c8.31-5.78,31.76-27.81,34.14-36.73l-9.76-10.9c-7.42,5.16-11.83,10.56-18,16.71C371.07,84.63,364,88.53,361.48,98.11Z"/><polygon class="cls-1" points="0 242.7 49.06 242.7 49.06 224.63 0 224.63 0 242.7"/><polygon class="cls-1" points="420.86 242.7 469.92 242.7 469.92 224.63 420.86 224.63 420.86 242.7"/><path class="cls-1" d="M360.9,368.65c3,9.74,9.16,13.09,15.42,19.29,6.6,6.54,11.39,12.52,18.72,17.43l10.81-12.46-33.42-34.64L360.9,368.65Z"/><path class="cls-1" d="M63.93,391.84l11.43,13.08c6.37-4.14,10.78-9.54,17-15.69,6.54-6.52,13.57-10.42,16.13-20l-9.75-10.9L63.93,391.84Z"/><polygon class="cls-1" points="227.21 49.06 242.71 49.06 242.71 0 227.21 0 227.21 49.06"/><polygon class="cls-1" points="227.21 467.33 242.71 467.33 242.71 418.28 227.21 418.28 227.21 467.33"/></g></g></svg>