<svg id="Layer_1" data-name="Layer 1" xmlns="http://www.w3.org/2000/svg" viewBox="0 0 234.05 239.04"><defs><style>.cls-1{fill-rule:evenodd;}</style></defs><g id="Layer_1-2" data-name="Layer_1"><polygon points="170.41 14.81 233.3 18.16 234.05 4 171.16 0.66 170.41 14.81"/><polygon points="164.58 61.2 226.2 74.22 229.13 60.35 167.51 47.33 164.58 61.2"/><polygon points="144.99 99.35 195.75 136.62 204.14 125.2 153.38 87.92 144.99 99.35"/><polygon points="117.85 132.77 161.31 178.34 171.56 168.56 128.1 122.99 117.85 132.77"/><polygon points="79.03 159.5 111.9 213.21 124 205.81 91.12 152.1 79.03 159.5"/><polygon points="40.15 177.38 52.97 239.04 66.85 236.15 54.03 174.5 40.15 177.38"/><path class="cls-1" d="M155.85,0a128.61,128.61,0,0,1,2,22.53,128,128,0,0,1-89.4,122L62.84,129A111.48,111.48,0,0,0,141.3,22.52a112.51,112.51,0,0,0-1.58-18.75h0L155.84,0Z"/><path class="cls-1" d="M125.38,2.27c.3,3.34.46,6.72.46,10.13A113.57,113.57,0,0,1,12.27,126,112.93,112.93,0,0,1,0,125.31V2.27H125.38Z"/></g></svg>