<svg id="Layer_1" data-name="Layer 1" xmlns="http://www.w3.org/2000/svg" viewBox="0 0 312.36 471.44"><defs><style>.cls-1{stroke:#000;stroke-miterlimit:9.4;stroke-width:0.57px;fill-rule:evenodd;}</style></defs><g id="Layer_1-2" data-name="Layer_1"><g id="_2586685305984" data-name=" 2586685305984"><polygon points="265.09 35.62 268.16 33.63 246.34 0 224.54 33.63 230.69 37.62 242.69 19.11 242.69 103.81 250.01 103.81 250.01 19.1 262.02 37.62 265.09 35.62"/><path class="cls-1" d="M246.35,121.53a36,36,0,1,1-36,36A36,36,0,0,1,246.35,121.53Zm0,6.19a29.84,29.84,0,1,1-29.84,29.83A29.83,29.83,0,0,1,246.35,127.72Z"/><polygon points="102.17 141.26 38.78 204.66 43.95 209.84 107.35 146.44 102.17 141.26"/><polygon points="38.78 146.44 102.17 209.84 107.35 204.66 43.95 141.26 38.78 146.44"/><polygon points="207.22 199.18 85.17 340.6 90.84 345.22 212.9 203.81 207.22 199.18"/><polygon points="189.81 409.29 89.91 335.3 85.77 341.34 185.68 415.32 189.81 409.29"/><polygon points="307.18 266.39 243.78 329.79 248.96 334.96 312.35 271.56 307.18 266.39"/><polygon points="243.78 271.56 307.18 334.96 312.35 329.79 248.96 266.39 243.78 271.56"/><path class="cls-1" d="M233.21,399.12a36,36,0,1,1-36,36A36,36,0,0,1,233.21,399.12Zm0,6.18a29.84,29.84,0,1,1-29.84,29.84,29.83,29.83,0,0,1,29.84-29.84Z"/><path class="cls-1" d="M36.3,317.73a36,36,0,1,1-36,36A36,36,0,0,1,36.3,317.73Zm0,6.19A29.84,29.84,0,1,1,6.47,353.76,29.84,29.84,0,0,1,36.3,323.92Z"/></g></g></svg>