<svg id="Layer_1" data-name="Layer 1" xmlns="http://www.w3.org/2000/svg" viewBox="0 0 173.47 27.31"><defs><style>.cls-1{fill:#303030;fill-rule:evenodd;}</style></defs><g id="Layer_1-2" data-name="Layer_1"><g id="_1743473506784" data-name=" 1743473506784"><path class="cls-1" d="M23.27,23.05,14.46.39H8.78L0,23.05ZM11.62,5l5.56,15H6.06Z"/><path class="cls-1" d="M46,.39V19.05a8.06,8.06,0,0,1-1,4h5.15a13.05,13.05,0,0,0,.53-3.79V.39Zm-13,22.66a8,8,0,0,1-1-4V.39h-4.7V19.26a13.05,13.05,0,0,0,.53,3.79Z"/><path class="cls-1" d="M65.77,0a12.17,12.17,0,0,0-7.84,2.37,7.66,7.66,0,0,0-3,6.38c0,11.12,17.58,5.64,17.58,13.1a4.29,4.29,0,0,1-.16,1.2h4.85a10.15,10.15,0,0,0,.1-1.37C77.28,10.3,59.7,15.9,59.7,8.49c0-2.89,2.37-4.65,5.94-4.65,3.75,0,6.17,2.06,6.29,5.51H76.5a8.66,8.66,0,0,0-3.06-6.81A11.42,11.42,0,0,0,65.77,0Z"/><polygon class="cls-1" points="78.61 0.39 78.61 4.57 87.74 4.57 87.74 23.05 92.44 23.05 92.44 4.57 101.57 4.57 101.57 0.39 78.61 0.39"/><polygon class="cls-1" points="125.22 0.39 104.71 0.39 104.71 23.05 109.41 23.05 109.41 17.15 123.93 17.15 123.93 13.14 109.41 13.14 109.41 4.57 125.22 4.57 125.22 0.39"/><polygon class="cls-1" points="173.46 0.39 152.95 0.39 152.95 23.05 157.65 23.05 157.65 17.15 172.17 17.15 172.17 13.14 157.65 13.14 157.65 4.57 173.46 4.57 173.46 0.39"/><path class="cls-1" d="M144.71,9.22c0,3.36-1.94,5.78-6.38,5.78h-5.78V3.62h5.78C142.81,3.62,144.71,5.82,144.71,9.22ZM128.63.39V23.05h3.92V18.14h4.74l2.86,4.91h4.57l-3.12-5.21c5-1.12,7.16-4.78,7.16-8.62,0-4.91-3.37-8.83-10.43-8.83Z"/><polygon class="cls-1" points="0.01 26.33 173.47 26.33 173.47 27.31 0.01 27.31 0.01 26.33"/></g></g></svg>