<svg id="Layer_1" data-name="Layer 1" xmlns="http://www.w3.org/2000/svg" viewBox="0 0 127.36 23.1"><defs><style>.cls-1,.cls-2{fill:#10183f;}.cls-2{fill-rule:evenodd;}</style></defs><g id="Layer_1-2" data-name="Layer_1"><g id="_1742976862336" data-name=" 1742976862336"><rect class="cls-1" x="40.15" y="0.07" width="5.43" height="22.97"/><rect class="cls-1" x="51.89" y="0.07" width="5.43" height="22.97"/><polygon class="cls-2" points="45.51 0.11 45.6 0.09 52.13 22.99 52.04 23.01 45.51 0.11"/><path class="cls-2" d="M21.85.07h5.43V5.71l-1.93-2c-2.14-2.26-3.41-.71-3.28.39s4.23,4.33,5.21,5.57V23H21.85V.07Z"/><path class="cls-2" d="M27.23,10.07a.57.57,0,0,0-.15-.31V23H37.94V15.26c-1.25.73-6.41,7-10.66,7.66C27.14,22.73,27.22,11.29,27.23,10.07ZM27,5.37c3,3.1,7,7.25,9.74,10V9c-3.1,0-6.1-.08-8.4-2.46-.85-.88-1.13-1.07-1.21-2.09Zm.13-2.31c0-.72.09-1.64.15-2.85,2.11-.39,4.91,1.23,5.28,4.67a2.63,2.63,0,0,0,.11.68H37.4c0-.72.06-4.47,0-5.49H27.08v3Z"/><path class="cls-2" d="M59.54.07H65V5.71c-.7-.71-1.35-1.38-1.93-2C60.9,1.45,59.63,3,59.76,4.1S64,8.43,65,9.67V23H59.54V.07Z"/><path class="cls-2" d="M64.92,10.07a.57.57,0,0,0-.15-.31V23H75.63V15.26c-1.25.73-6.4,7-10.66,7.66C64.82,22.73,64.91,11.29,64.92,10.07Zm-.28-4.7c3,3.1,7,7.25,9.74,10V9c-3.1,0-6.1-.08-8.4-2.46-.85-.88-1.13-1.07-1.21-2.09Zm.13-2.31c0-.72.09-1.64.15-2.85C67-.18,69.84,1.44,70.2,4.88a2.63,2.63,0,0,0,.11.68h4.78c0-.72.06-4.47,0-5.49H64.77Z"/><path class="cls-2" d="M102,.07H96.6V5.71l1.93-2c2.14-2.26,3.41-.71,3.28.39S97.59,8.43,96.6,9.67V23H102V.07Z"/><polygon class="cls-2" points="124.42 3.36 124.49 3.42 109.04 19.01 108.97 18.94 124.42 3.36"/><path class="cls-2" d="M115.86,0a11.5,11.5,0,1,1-11.49,11.49A11.49,11.49,0,0,1,115.86,0Zm-6.75,2.64c3.44-.51,7.17,1.66,10.11,4.64h0c.77-.81,2.7-3,3.58-3.34a1.31,1.31,0,0,1,1.62,2A37.56,37.56,0,0,1,121,9.4c4.22,5.41,5.6,11.93-.8,10.94-2.81-.44-6.14-2.7-8.78-5.49-.86.92-2.59,2.84-3.41,3.15a1.31,1.31,0,0,1-1.62-2,38.76,38.76,0,0,1,3.22-3.28c-3.1-4.11-4.34-8.6-.53-10Z"/><path class="cls-2" d="M92.89,0l-.1,7.19C91.2,5.69,86.4.48,84.8.31S80.46,1.9,83.58,4.68c3.89,3.47,10,7.84,10.69,11.7a5.42,5.42,0,0,1-4.53,6.54c-.59.08-10.86.16-11.91.17v-8c.7.66,7.63,7.52,9.17,7.79,3.11.56,5-2.84,1.77-6C86.06,14.21,79.13,9,78.5,6.44,77.67,3.07,80.12.16,84.61.05Z"/><path class="cls-2" d="M19.19,5.63,19.14.07c-3.56,0-7,0-10.59,0A7.17,7.17,0,0,0,6.61.58c-8.75,4.29-9.2,18.89,1,22.43.67-.67,9.36-9.7,10.23-9.9s2.58,1,.88,2.79S14,20.92,11.91,23h7.72c0-2.21.32-8.45-.31-9.37s-1.87-.78-2.83-.79h-7c1.36.25,4.88.64,4.06,3.35-.38,1.25-2,2.57-2.88,3.45-5-3.75-7.33-9.64-5.36-15.42C7.15-1,13.73-1.86,14,5.71l5.16-.08Z"/></g></g></svg>