<svg id="Layer_1" data-name="Layer 1" xmlns="http://www.w3.org/2000/svg" viewBox="0 0 179.07 42.67"><defs><style>.cls-1{fill:#3f484d;}.cls-2{fill:#145de3;fill-rule:evenodd;}</style></defs><g id="Layer_1-2" data-name="Layer_1"><g id="_1744450723568" data-name=" 1744450723568"><path class="cls-1" d="M99,9.37V3.9s0-.08.08-.08h1.29c.06,0,.08,0,.08.08v2a0,0,0,0,0,0,0h1.54a0,0,0,0,0,.05,0v-2s0-.08.08-.08h1.29a.07.07,0,0,1,.08.08V9.37a.07.07,0,0,1-.08.08H102.2c-.06,0-.08,0-.08-.08V7.29a0,0,0,0,0-.05,0h-1.54a0,0,0,0,0,0,0V9.37c0,.05,0,.08-.08.08H99.11C99.05,9.45,99,9.42,99,9.37Zm9-.18a2.64,2.64,0,0,1-2.66,0,1.79,1.79,0,0,1-.78-1,5.47,5.47,0,0,1-.17-1.53,5.5,5.5,0,0,1,.17-1.54,1.79,1.79,0,0,1,.78-1,2.64,2.64,0,0,1,2.66,0,1.79,1.79,0,0,1,.78,1A5.37,5.37,0,0,1,109,6.64a5.34,5.34,0,0,1-.16,1.53A1.79,1.79,0,0,1,108.06,9.19Zm-2-1.44a.67.67,0,0,0,.72.5.69.69,0,0,0,.72-.5,4.77,4.77,0,0,0,.08-1.11,4.82,4.82,0,0,0-.08-1.12.69.69,0,0,0-.72-.5.67.67,0,0,0-.72.5,4.13,4.13,0,0,0-.09,1.12A4.09,4.09,0,0,0,106,7.75Zm5.9,1.8a3.69,3.69,0,0,1-1.3-.24,2.61,2.61,0,0,1-1-.56.08.08,0,0,1,0-.14l.74-.87s.08,0,.12,0a2.12,2.12,0,0,0,1.43.56,1.09,1.09,0,0,0,.59-.14.46.46,0,0,0,.21-.39.35.35,0,0,0-.16-.3,1.19,1.19,0,0,0-.56-.17l-.3,0c-1.25-.18-1.87-.77-1.87-1.77a1.59,1.59,0,0,1,.57-1.28,2.27,2.27,0,0,1,1.52-.48,3.27,3.27,0,0,1,2,.62.09.09,0,0,1,0,.13l-.62.9s-.08,0-.12,0A2.29,2.29,0,0,0,112,5a.76.76,0,0,0-.46.13.44.44,0,0,0-.16.34.37.37,0,0,0,.17.31,1.2,1.2,0,0,0,.55.16l.3,0a2.48,2.48,0,0,1,1.4.56,1.59,1.59,0,0,1,.46,1.22,1.62,1.62,0,0,1-.6,1.31,2.59,2.59,0,0,1-1.7.5Zm4.46-.1h-1.29c-.06,0-.08,0-.08-.08V3.9s0-.08.08-.08h2.25a2.15,2.15,0,0,1,1.54.51,1.78,1.78,0,0,1,.55,1.36,1.82,1.82,0,0,1-.55,1.36,2.13,2.13,0,0,1-1.54.52h-.83a0,0,0,0,0,0,0V9.37c0,.05,0,.08-.08.08Zm.88-3.11a.71.71,0,0,0,.52-.18.58.58,0,0,0,.19-.47.6.6,0,0,0-.19-.47.76.76,0,0,0-.52-.17h-.75a0,0,0,0,0,0,0V6.29a0,0,0,0,0,0,0Zm2.91,3V3.9s0-.08.09-.08h1.29a.07.07,0,0,1,.08.08V9.37a.07.07,0,0,1-.08.08h-1.29C120.19,9.45,120.16,9.42,120.16,9.37Zm5,.08h-1.32l0,0a.08.08,0,0,1,0,0V5.16s0,0,0,0h-1.46a.07.07,0,0,1,0,0V3.9a.08.08,0,0,1,.06-.08h4.34a.09.09,0,0,1,.06,0h0a.06.06,0,0,1,0,0V5a.08.08,0,0,1,0,.07h-1.47l0,0V9.39s0,0,0,0Zm1.31-.08,1.94-5.47a.12.12,0,0,1,.11-.08h1.35a.12.12,0,0,1,.11.08l1.9,5.47c0,.05,0,.08-.06.08h-1.36a.11.11,0,0,1-.11-.08l-.26-.87h-1.83l-.27.87a.11.11,0,0,1-.11.08h-1.35c-.06,0-.08,0-.06-.08Zm2.16-2.08h1.09l-.52-1.76h0Zm3.89,2.08V3.9a.07.07,0,0,1,.08-.08h1.3a.07.07,0,0,1,.08.08V8.11a0,0,0,0,0,0,.05h2.38c.06,0,.09,0,.09.08V9.37c0,.05,0,.08-.09.08h-3.81A.07.07,0,0,1,132.53,9.37Zm4.69,0V3.9a.07.07,0,0,1,.08-.08h1.29c.06,0,.09,0,.09.08V9.37c0,.05,0,.08-.09.08H137.3A.07.07,0,0,1,137.22,9.37Zm5,.08h-1.31l0,0a0,0,0,0,1,0,0V5.16s0,0,0,0h-1.47a.43.43,0,0,1,0,0V3.9a.08.08,0,0,1,.06-.08h4.35l.06,0h0l0,0V5a.14.14,0,0,1,0,.07h-1.48V9.39l0,0Zm4.94,0h-1.29c-.06,0-.09,0-.09-.08V7.27l-1.7-3.36c0-.06,0-.09.07-.09h1.29a.17.17,0,0,1,.14.08l.94,1.93h0l.92-1.93a.15.15,0,0,1,.14-.08h1.27c.07,0,.09,0,.07.09l-1.71,3.36v2.1a.07.07,0,0,1-.08.08Zm-46.1,8.46a3.61,3.61,0,0,1-1.3-.24,2.67,2.67,0,0,1-1-.56c-.05-.05-.06-.09,0-.14l.74-.87c0-.05.08-.05.12,0a2.12,2.12,0,0,0,1.43.56,1,1,0,0,0,.59-.15.43.43,0,0,0,.21-.38.36.36,0,0,0-.16-.31,1.29,1.29,0,0,0-.55-.16l-.3,0C99.6,15.43,99,14.84,99,13.83a1.57,1.57,0,0,1,.57-1.27,2.29,2.29,0,0,1,1.52-.48,3.23,3.23,0,0,1,2,.62s0,.07,0,.12l-.62.91a.08.08,0,0,1-.12,0,2.26,2.26,0,0,0-1.26-.42.68.68,0,0,0-.46.13.4.4,0,0,0-.16.34.36.36,0,0,0,.16.31,1.39,1.39,0,0,0,.56.16l.29,0a2.52,2.52,0,0,1,1.4.57,1.6,1.6,0,0,1,.47,1.22,1.62,1.62,0,0,1-.6,1.31,2.62,2.62,0,0,1-1.71.5Zm5.3,0a2.07,2.07,0,0,1-2.24-2.28V12.26a.07.07,0,0,1,.08-.08h1.3a.07.07,0,0,1,.08.08v3.46a.94.94,0,0,0,.21.65.75.75,0,0,0,.58.24.75.75,0,0,0,.57-.23,1,1,0,0,0,.2-.66V12.26s0-.08.09-.08h1.29a.07.07,0,0,1,.08.08v3.37a2.06,2.06,0,0,1-2.23,2.28Zm4.61-.1h-1.29c-.06,0-.08,0-.08-.08V12.26s0-.08.08-.08h2.25a2.19,2.19,0,0,1,1.55.51,1.79,1.79,0,0,1,.54,1.36,1.78,1.78,0,0,1-.55,1.36,2.13,2.13,0,0,1-1.54.52h-.83a0,0,0,0,0,0,.05v1.75c0,.05,0,.08-.08.08Zm.88-3.11a.71.71,0,0,0,.52-.18.68.68,0,0,0,0-.94.76.76,0,0,0-.52-.17h-.75a0,0,0,0,0,0,.05v1.19a0,0,0,0,0,0,0Zm4.29,3.11h-1.29c-.06,0-.09,0-.09-.08V12.26s0-.08.09-.08h2.25a2.15,2.15,0,0,1,1.54.51,1.76,1.76,0,0,1,.55,1.36,1.82,1.82,0,0,1-.55,1.36,2.14,2.14,0,0,1-1.54.52h-.83a0,0,0,0,0,0,.05v1.75a.07.07,0,0,1-.08.08ZM117,14.7a.71.71,0,0,0,.52-.18.68.68,0,0,0,0-.94.76.76,0,0,0-.52-.17h-.75a0,0,0,0,0,0,.05v1.19a0,0,0,0,0,0,0Zm6.39,2.85a2.66,2.66,0,0,1-2.67,0,1.84,1.84,0,0,1-.77-1A5.37,5.37,0,0,1,119.8,15a5.47,5.47,0,0,1,.17-1.53,1.84,1.84,0,0,1,.77-1,2.52,2.52,0,0,1,1.34-.35,2.49,2.49,0,0,1,1.33.35,1.85,1.85,0,0,1,.78,1,5.34,5.34,0,0,1,.16,1.53,5.25,5.25,0,0,1-.16,1.53A1.85,1.85,0,0,1,123.41,17.55Zm-2-1.44a.67.67,0,0,0,.72.5.69.69,0,0,0,.72-.5,4.82,4.82,0,0,0,.08-1.12,4.77,4.77,0,0,0-.08-1.11.68.68,0,0,0-.72-.5.67.67,0,0,0-.72.5,4.09,4.09,0,0,0-.09,1.11A4.13,4.13,0,0,0,121.36,16.11Zm8.33,1.7h-1.43a.13.13,0,0,1-.13-.08l-.85-1.93h-.54a0,0,0,0,0,0,0v1.88a.07.07,0,0,1-.08.08h-1.29c-.06,0-.09,0-.09-.08V12.26s0-.08.09-.08h2.29a2.13,2.13,0,0,1,1.49.5,1.7,1.7,0,0,1,.54,1.31,1.83,1.83,0,0,1-.24.94,1.62,1.62,0,0,1-.69.63l1,2.15a.06.06,0,0,1,0,.06s0,0-.06,0Zm-2.17-3.21a.68.68,0,0,0,.48-.16.54.54,0,0,0,.18-.43.57.57,0,0,0-.18-.44.73.73,0,0,0-.48-.16h-.78a0,0,0,0,0,0,.05v1.09s0,0,0,0Zm5.55,3.21h-1.32l0,0s0,0,0,0V13.52a.05.05,0,0,0,0,0h-1.41a0,0,0,0,1,0,0h0a.07.07,0,0,1,0,0V12.26a.08.08,0,0,1,.06-.08h4.34l.06,0v0a.05.05,0,0,1,0,0v1.13a.07.07,0,0,1,0,.06.05.05,0,0,1,0,0h-1.45v4.26s0,0,0,.05Zm11.36.1a3.61,3.61,0,0,1-1.3-.24,2.67,2.67,0,0,1-1-.56c0-.05-.06-.09,0-.14l.74-.87c0-.05.08-.05.12,0a2.13,2.13,0,0,0,1.43.56,1,1,0,0,0,.59-.15.43.43,0,0,0,.21-.38.36.36,0,0,0-.16-.31,1.29,1.29,0,0,0-.55-.16l-.3,0c-1.26-.18-1.88-.77-1.88-1.78a1.57,1.57,0,0,1,.57-1.27,2.29,2.29,0,0,1,1.52-.48,3.23,3.23,0,0,1,2,.62c.05,0,.05.07,0,.12l-.62.91a.08.08,0,0,1-.12,0,2.26,2.26,0,0,0-1.26-.42.68.68,0,0,0-.46.13.4.4,0,0,0-.16.34.36.36,0,0,0,.16.31,1.39,1.39,0,0,0,.56.16l.29,0a2.52,2.52,0,0,1,1.4.57,1.6,1.6,0,0,1,.47,1.22,1.62,1.62,0,0,1-.6,1.31,2.62,2.62,0,0,1-1.71.5Zm3.08-.18V12.26a.07.07,0,0,1,.08-.08h3.69a.07.07,0,0,1,.08.08v1.07a.07.07,0,0,1-.08.08H149s-.05,0-.05.05v.85s0,0,.05,0h1.85c.06,0,.08,0,.08.09v1c0,.06,0,.08-.08.08H149s-.05,0-.05,0v.91s0,0,.05,0h2.26c.05,0,.08,0,.08.08v1.07a.07.07,0,0,1-.08.08h-3.69a.07.07,0,0,1-.08-.08Zm9.16.08h-1.43a.12.12,0,0,1-.12-.08l-.85-1.93h-.54s0,0,0,0v1.88c0,.05,0,.08-.09.08H152.3a.07.07,0,0,1-.08-.08V12.26a.07.07,0,0,1,.08-.08h2.3a2.13,2.13,0,0,1,1.49.5,1.69,1.69,0,0,1,.53,1.31,1.82,1.82,0,0,1-.23.94,1.62,1.62,0,0,1-.69.63l1,2.15a.06.06,0,0,1,0,.06.05.05,0,0,1-.06,0Zm-2.16-3.21a.68.68,0,0,0,.48-.16.54.54,0,0,0,.18-.43.57.57,0,0,0-.18-.44.73.73,0,0,0-.48-.16h-.78a0,0,0,0,0,0,.05v1.09s0,0,0,0Zm5.66,3.21h-1.25a.12.12,0,0,1-.11-.08L157,12.27c0-.06,0-.09.07-.09h1.36a.12.12,0,0,1,.11.08l1,3.4h0l1-3.4a.11.11,0,0,1,.11-.08H162c.06,0,.09,0,.06.09l-1.79,5.46a.11.11,0,0,1-.11.08Zm2.54-.08V12.26s0-.08.08-.08h1.29c.06,0,.08,0,.08.08v5.47c0,.05,0,.08-.08.08h-1.29C162.73,17.81,162.71,17.78,162.71,17.73Zm2.5-1.21A5.27,5.27,0,0,1,165,15a5.19,5.19,0,0,1,.17-1.52,1.94,1.94,0,0,1,.75-1,2.3,2.3,0,0,1,1.29-.35,2.27,2.27,0,0,1,1.26.33,1.94,1.94,0,0,1,.76.95.08.08,0,0,1,0,.12l-1.1.48a.08.08,0,0,1-.11-.05.8.8,0,0,0-.74-.53.65.65,0,0,0-.68.49,4.88,4.88,0,0,0-.08,1.12,5,5,0,0,0,.08,1.13.64.64,0,0,0,.68.49.81.81,0,0,0,.74-.53.07.07,0,0,1,.11,0l1.1.48a.07.07,0,0,1,0,.11,1.9,1.9,0,0,1-.76.95,2.2,2.2,0,0,1-1.26.34,2.3,2.3,0,0,1-1.29-.35,2,2,0,0,1-.75-1ZM170,17.73V12.26a.07.07,0,0,1,.08-.08h3.69a.07.07,0,0,1,.08.08v1.07a.07.07,0,0,1-.08.08h-2.26s0,0,0,.05v.85s0,0,0,0h1.85a.08.08,0,0,1,.09.09v1c0,.06,0,.08-.09.08h-1.85s0,0,0,0v.91s0,0,0,0h2.26s.08,0,.08.08v1.07a.07.07,0,0,1-.08.08h-3.69a.07.07,0,0,1-.08-.08Zm6.74.18a3.69,3.69,0,0,1-1.3-.24,2.76,2.76,0,0,1-1-.56.09.09,0,0,1,0-.14l.75-.87c0-.05.08-.05.12,0a2.12,2.12,0,0,0,1.43.56,1,1,0,0,0,.59-.15.44.44,0,0,0,.2-.38.37.37,0,0,0-.15-.31,1.34,1.34,0,0,0-.56-.16l-.3,0c-1.25-.18-1.88-.77-1.88-1.78a1.57,1.57,0,0,1,.57-1.27,2.32,2.32,0,0,1,1.53-.48,3.27,3.27,0,0,1,2,.62.08.08,0,0,1,0,.12l-.63.91a.07.07,0,0,1-.11,0,2.31,2.31,0,0,0-1.27-.42.7.7,0,0,0-.46.13.4.4,0,0,0-.16.34.37.37,0,0,0,.17.31,1.34,1.34,0,0,0,.55.16l.3,0a2.55,2.55,0,0,1,1.4.57,1.59,1.59,0,0,1,.46,1.22,1.62,1.62,0,0,1-.6,1.31,2.61,2.61,0,0,1-1.7.5Z"/><path class="cls-1" d="M136.05,16.37a1.54,1.54,0,0,1,.23-.84,3.2,3.2,0,0,1,.78-.81,4.85,4.85,0,0,1-.45-.69,1.47,1.47,0,0,1-.13-.57,1.23,1.23,0,0,1,.46-1,1.64,1.64,0,0,1,1.12-.39,1.62,1.62,0,0,1,1.13.39,1.26,1.26,0,0,1,.43,1,1.29,1.29,0,0,1-.2.69,3.45,3.45,0,0,1-.72.72l.59.75.55-.62s.08,0,.11,0l.68.59s.05.07,0,.12l-.66.77.09.11a.39.39,0,0,0,.31.15h.13c.05,0,.08,0,.08.09v.92a.07.07,0,0,1-.08.08h-.42a1.17,1.17,0,0,1-.53-.1,1.5,1.5,0,0,1-.42-.37,2.12,2.12,0,0,1-1.44.57,1.66,1.66,0,0,1-1.21-.42,1.45,1.45,0,0,1-.44-1.12ZM138,14c.27-.23.41-.42.41-.6a.36.36,0,0,0-.1-.27.31.31,0,0,0-.26-.11.33.33,0,0,0-.26.11.36.36,0,0,0-.1.27A1.19,1.19,0,0,0,138,14Zm-.72,2.24a.5.5,0,0,0,.52.52.91.91,0,0,0,.64-.3l-.72-.91a1,1,0,0,0-.44.69Z"/><polygon class="cls-2" points="28.16 16.01 5.59 16.01 5.59 7.7 28.16 7.7 28.16 16.01"/><polygon class="cls-2" points="0 32.56 0 0.02 8.32 0.02 8.32 32.56 0 32.56"/><polygon class="cls-2" points="19.84 32.56 19.84 0.02 28.16 0.02 28.16 32.56 19.84 32.56"/><path class="cls-2" d="M53,3.48A14.38,14.38,0,0,1,58.07,13.7h-9A5.31,5.31,0,0,0,38.7,12.13,6.27,6.27,0,0,0,38.9,16a.59.59,0,0,1,0,.08l0,0,.07.15C41.73,21.32,57.9,16,57.9,31.81c0,.31,0,.61,0,.91H49c0-.11,0-.22,0-.33,0-5.83-5.8-5.13-8.26-5.48C31.15,25.62,27.35,15.36,31.2,7.74A14,14,0,0,1,53,3.48Z"/><path class="cls-2" d="M64.94,3.48A14.38,14.38,0,0,0,59.82,13.7h9a5.31,5.31,0,0,1,10.35-1.57A6.34,6.34,0,0,1,79,16l0,.08,0,0-.07.15a3.28,3.28,0,0,1-.92,1.05h9.84A14,14,0,0,0,64.94,3.48Z"/><polygon class="cls-2" points="88.16 34.35 69.35 34.35 69.35 42.67 88.16 42.67 88.16 34.35"/><polygon class="cls-2" points="58.69 32.72 69.42 20.13 79.91 20.13 69.25 32.72 58.69 32.72"/></g></g></svg>