<svg id="Layer_1" data-name="Layer 1" xmlns="http://www.w3.org/2000/svg" viewBox="0 0 208.34 37.45"><defs><style>.cls-1{fill:#1b252e;}.cls-2{fill:red;}</style></defs><g id="Layer_1-2" data-name="Layer_1"><g id="_1744451745072" data-name=" 1744451745072"><polygon class="cls-1" points="6.55 21.49 6.55 0.21 1.31 0.21 1.31 21.49 6.55 21.49"/><path class="cls-1" d="M29.82,10.85c0-3.35.27-6.06-2.21-8.55A8,8,0,0,0,21.86.21H14V21.49h7.9a7.93,7.93,0,0,0,5.75-2.1c2.48-2.48,2.21-5.19,2.21-8.54Zm-5.24,0c0,3.61-.15,4.18-.56,4.78a2.72,2.72,0,0,1-2.52,1.19H19.2V4.88h2.3A2.72,2.72,0,0,1,24,6.07c.41.6.56,1.2.56,4.78Z"/><polygon class="cls-1" points="51.69 21.49 51.69 16.82 42.44 16.82 42.44 13.08 50.34 13.08 50.34 8.41 42.44 8.41 42.44 4.88 51.69 4.88 51.69 0.21 37.2 0.21 37.2 21.49 51.69 21.49"/><path class="cls-1" d="M74.35,10.84c0-3.21.09-6.2-2.15-8.44a8.59,8.59,0,0,0-11.91,0C58,4.64,58.13,7.63,58.13,10.84S58,17,60.29,19.28a8.61,8.61,0,0,0,11.91,0C74.44,17,74.35,14,74.35,10.84Zm-5.23,0c0,3.89-.3,4.58-.78,5.2a2.77,2.77,0,0,1-4.19,0c-.48-.62-.78-1.31-.78-5.2s.3-4.61.78-5.24a2.82,2.82,0,0,1,4.19,0C68.82,6.23,69.12,6.94,69.12,10.84Z"/><path class="cls-1" d="M95.92,15a6.18,6.18,0,0,0-1.59-4.67,7.15,7.15,0,0,0-4.19-1.77l-2.57-.36a2.4,2.4,0,0,1-1.47-.63,1.41,1.41,0,0,1-.42-1c0-.92.75-2,2.57-2a5.27,5.27,0,0,1,4,1.26l3.29-3.3C93.76.72,91.46,0,88.4,0c-4.84,0-7.78,2.84-7.78,6.73A5.87,5.87,0,0,0,82.09,11a7.19,7.19,0,0,0,4.28,1.89l2.57.36a2.38,2.38,0,0,1,1.41.57,1.74,1.74,0,0,1,.42,1.25c0,1.23-1,1.92-3,1.92A6.93,6.93,0,0,1,83,15.5L79.6,18.85c2.16,2.22,4.82,2.82,8.09,2.82,4.49,0,8.23-2.37,8.23-6.71Z"/><path class="cls-1" d="M118.53,7.05c0-3.49-2.55-6.84-7.28-6.84h-8.44V21.49h5.24v-7.6h3.2c4.73,0,7.28-3.35,7.28-6.84Zm-5.24,0A2.15,2.15,0,0,1,111,9.19h-3V4.91h3a2.15,2.15,0,0,1,2.28,2.14Z"/><polygon class="cls-1" points="141.17 21.49 141.17 0.21 135.93 0.21 135.93 8.38 130.36 8.38 130.36 0.21 125.13 0.21 125.13 21.49 130.36 21.49 130.36 13.05 135.93 13.05 135.93 21.49 141.17 21.49"/><polygon class="cls-1" points="163.63 21.49 163.63 16.82 154.38 16.82 154.38 13.08 162.28 13.08 162.28 8.41 154.38 8.41 154.38 4.88 163.63 4.88 163.63 0.21 149.14 0.21 149.14 21.49 163.63 21.49"/><path class="cls-1" d="M187.62,21.49,183,12.62a6.13,6.13,0,0,0,3.47-5.56c0-3.5-2.54-6.85-7.27-6.85h-8.44V21.49H176V13.57h1.77l3.77,7.92ZM181.24,7.06A2.16,2.16,0,0,1,179,9.21h-3V4.91h3A2.15,2.15,0,0,1,181.24,7.06Z"/><polygon class="cls-1" points="208.34 21.49 208.34 16.82 199.09 16.82 199.09 13.08 207 13.08 207 8.41 199.09 8.41 199.09 4.88 208.34 4.88 208.34 0.21 193.85 0.21 193.85 21.49 208.34 21.49"/><path class="cls-2" d="M7.45,32.32c0-1.74,0-3-1-4a3.61,3.61,0,0,0-2.71-1.1A3.68,3.68,0,0,0,1,28.3c-1,1-1,2.28-1,4s0,3,1,4a3.69,3.69,0,0,0,2.74,1.11,3.62,3.62,0,0,0,2.71-1.11C7.46,35.32,7.45,34.06,7.45,32.32Z"/></g></g></svg>