<svg id="Layer_1" data-name="Layer 1" xmlns="http://www.w3.org/2000/svg" viewBox="0 0 238.29 28.22"><defs><style>.cls-1{fill:#293592;}.cls-2{fill:#595a5c;}</style></defs><g id="Layer_1-2" data-name="Layer_1"><g id="_1742973477296" data-name=" 1742973477296"><polygon class="cls-1" points="18.79 28.21 22.61 24.53 20.97 23.8 18.79 28.21"/><polygon class="cls-1" points="8.51 24.53 12.33 28.21 10.15 23.8 8.51 24.53"/><polygon class="cls-2" points="25.84 14.39 25.73 18.04 31.12 18.04 31.12 8.45 25.84 14.39"/><polygon class="cls-2" points="0 18.04 5.38 18.04 5.27 14.39 0 8.46 0 18.04"/><path class="cls-1" d="M15.56,17C10.66,10.49,2.39.17,0,.17V4.72l5.31,7.41a161.28,161.28,0,0,1,10.1,13.09h.3A162.11,162.11,0,0,1,25.84,12.13L31.12,6.2v-6C28.76.17,20.46,10.49,15.56,17Z"/><path class="cls-2" d="M50.36,18h5c-3-6-6.49-12.74-9.56-18h-.24C42.48,5.29,39,12,36,18h5l1-2.27h7.26l1,2.27ZM45.7,7.91c.67,1.32,1.39,2.64,2.07,4H43.65C44.33,10.55,45,9.2,45.7,7.91ZM71.6,4.52V.91A15.27,15.27,0,0,0,66.36,0c-5.59,0-9.31,3.65-9.31,9.14s3.76,9.12,9.47,9.12a16.8,16.8,0,0,0,5.33-.88v-3.6a13,13,0,0,1-3.77.59c-3.7,0-6.18-2.09-6.18-5.23s2.37-5.24,6-5.24a11.3,11.3,0,0,1,3.69.62ZM93.45,7h0V.24H88.72V7H81.15V.24H76.44V18h4.71V10.89h7.57V18h4.71V10.89h0ZM103.74.24H99V18h4.71Zm23.34,0h-4.71l.07,9.47C117.92,6,111.27,0,109.35,0V18h4.7L114,8.58c4.51,3.72,11.17,9.68,13.09,9.68ZM144.75,18h5c-3-6-6.49-12.74-9.57-18H140c-3.1,5.29-6.59,12-9.57,18h5l1-2.27h7.25l1,2.27ZM140.08,7.91c.68,1.32,1.4,2.64,2.07,4H138C138.71,10.55,139.41,9.2,140.08,7.91ZM164.5.24H149.45v3.9h5.18V18h4.7V4.14h5.17V.24Zm8.7,0h-4.71V18h4.71Zm14.35,18c5.79,0,9.69-3.65,9.69-9.12S193.34,0,187.55,0s-9.73,3.65-9.73,9.14S181.72,18.26,187.55,18.26Zm0-3.89c-2.93,0-4.87-2.09-4.87-5.23s1.94-5.24,4.87-5.24,4.83,2.09,4.83,5.24S190.43,14.37,187.55,14.37Zm32-14.13h-4.71L215,9.71C210.43,6,203.78,0,201.86,0V18h4.7l-.06-9.45c4.51,3.72,11.17,9.68,13.09,9.68Zm14,12.91c0,.84-.93,1.34-3.41,1.34a14,14,0,0,1-5-1.06V17a15.17,15.17,0,0,0,6.27,1.29c4.32,0,6.92-2.15,6.92-5.74s-2.38-5-5.51-5.74l-.66-.17c-1.73-.43-3-.7-3-1.61s1-1.23,3.4-1.23a16.36,16.36,0,0,1,4.66.84V1.08A15.92,15.92,0,0,0,231.39,0c-4.42,0-7.06,2.09-7.06,5.82s2.14,4.54,5.65,5.46l.74.19c1.54.41,2.83.74,2.83,1.68Z"/></g></g></svg>