<svg id="Layer_1" data-name="Layer 1" xmlns="http://www.w3.org/2000/svg" viewBox="0 0 188.76 42.2"><defs><style>.cls-1{fill:#373435;}.cls-2{fill:#83c717;}.cls-2,.cls-3{fill-rule:evenodd;}.cls-3{fill:#2f7f04;}</style></defs><g id="Layer_1-2" data-name="Layer_1"><g id="_1742882107904" data-name=" 1742882107904"><path class="cls-1" d="M73.3,14.06a.39.39,0,0,1,.13-.31.44.44,0,0,1,.33-.13h.61L84.1,23h0V14.33a.45.45,0,0,1,.14-.33.44.44,0,0,1,.33-.13h2.92a.44.44,0,0,1,.46.46V30.74a.39.39,0,0,1-.13.31.44.44,0,0,1-.33.13h-.39l-.16,0a.35.35,0,0,1-.16-.09l-9.62-9.67h0v9.09a.44.44,0,0,1-.46.46h-2.9a.44.44,0,0,1-.33-.13.45.45,0,0,1-.14-.33l0-16.41ZM92.53,30.93a.46.46,0,0,1-.4-.19.41.41,0,0,1,0-.44l7.63-16.41a.42.42,0,0,1,.41-.27h.25a.44.44,0,0,1,.41.27l7.63,16.41a.41.41,0,0,1,0,.44.45.45,0,0,1-.4.19h-2.71a.8.8,0,0,1-.51-.13,1.41,1.41,0,0,1-.34-.48l-.88-1.92H97l-.88,2a1.11,1.11,0,0,1-.3.4.85.85,0,0,1-.57.18Zm9.61-5.85-1.85-4h0l-1.83,4Zm9.09-2.66a8.53,8.53,0,0,1,.69-3.42,8.66,8.66,0,0,1,1.87-2.79,9,9,0,0,1,2.78-1.88,8.65,8.65,0,0,1,3.41-.68,8.81,8.81,0,0,1,3.13.6,9,9,0,0,1,2.82,1.69.41.41,0,0,1,.19.32.45.45,0,0,1-.14.34l-1.92,2a.5.5,0,0,1-.66,0,4.35,4.35,0,0,0-1.5-.9,5.22,5.22,0,0,0-1.7-.27,4.54,4.54,0,0,0-1.87.39A4.72,4.72,0,0,0,116.8,19a5.07,5.07,0,0,0-1,1.57,4.92,4.92,0,0,0-.38,1.9,4.71,4.71,0,0,0,.38,1.88,4.91,4.91,0,0,0,2.57,2.58,4.43,4.43,0,0,0,1.88.39,6.43,6.43,0,0,0,1.07-.08,5.37,5.37,0,0,0,1.1-.31V25.47h-1.54a.48.48,0,0,1-.33-.12.41.41,0,0,1-.13-.32V22.62a.4.4,0,0,1,.46-.46h4.9a.41.41,0,0,1,.32.13.48.48,0,0,1,.12.33l0,6.56a.47.47,0,0,1-.2.39,9,9,0,0,1-1.71.8,13.68,13.68,0,0,1-1.91.54,11.51,11.51,0,0,1-2.43.24,8.65,8.65,0,0,1-3.41-.68,9.26,9.26,0,0,1-2.78-1.85,8.71,8.71,0,0,1-2.56-6.2Zm20.48-8.09a.45.45,0,0,1,.14-.33.41.41,0,0,1,.32-.13h7.29a5.26,5.26,0,0,1,2.06.41,5.52,5.52,0,0,1,1.7,1.14,5.06,5.06,0,0,1,1.14,1.67,5,5,0,0,1,.42,2,4.78,4.78,0,0,1-1,3A6,6,0,0,1,141.17,24l3.34,6.19a.54.54,0,0,1,0,.48.42.42,0,0,1-.42.23h-3.25a.38.38,0,0,1-.24-.07.71.71,0,0,1-.15-.15l-3.24-6.46h-1.68v6.22a.45.45,0,0,1-.14.33.41.41,0,0,1-.32.13h-2.91a.42.42,0,0,1-.32-.13.45.45,0,0,1-.14-.33V14.33Zm7.44,6.83a1.72,1.72,0,0,0,1.3-.59,1.9,1.9,0,0,0,.55-1.36,1.86,1.86,0,0,0-1.85-1.86h-3.61v3.81Zm11-6.83a.49.49,0,0,1,.13-.33.44.44,0,0,1,.33-.13h2.93a.44.44,0,0,1,.46.46V30.47a.44.44,0,0,1-.46.46h-2.93a.44.44,0,0,1-.33-.13.49.49,0,0,1-.13-.33Zm8.41,16.6a.45.45,0,0,1-.4-.19.41.41,0,0,1,0-.44l7.63-16.41a.42.42,0,0,1,.41-.27h.25a.46.46,0,0,1,.41.27l7.63,16.41a.41.41,0,0,1,0,.44.46.46,0,0,1-.4.19H171.4a.8.8,0,0,1-.51-.13,1.29,1.29,0,0,1-.34-.48l-.88-1.92H163l-.88,2a1.24,1.24,0,0,1-.3.4.86.86,0,0,1-.58.18Zm9.61-5.85-1.86-4h0l-1.83,4Zm10.46-10.75a.44.44,0,0,1,.46-.46H182a.44.44,0,0,1,.46.46v13h5.8a.44.44,0,0,1,.33.13.45.45,0,0,1,.14.33v2.66a.45.45,0,0,1-.14.33.44.44,0,0,1-.33.13h-9.16a.44.44,0,0,1-.46-.46V14.33Z"/><path class="cls-2" d="M40.5,19.9,2,42.14l-.13,0A1.57,1.57,0,0,1,0,41V23.85a1.75,1.75,0,0,1,.67-1.23h0C6.52,19.23,39.64,0,40,0a1.39,1.39,0,0,1,1.31.9l-.19,18.67v-.76a1.74,1.74,0,0,1-.59,1.09Z"/><path class="cls-3" d="M60.92,31.35,42.58,41.94s.32-.06-.13,0a1.92,1.92,0,0,1-1.86-1.23V23.66a1.8,1.8,0,0,1,.66-1.24h0c5.86-3.39,18.81-11,19.13-11a1.39,1.39,0,0,1,1.31.9L61.5,31v-.76a1.74,1.74,0,0,1-.59,1.09Z"/></g></g></svg>