<svg id="Layer_1" data-name="Layer 1" xmlns="http://www.w3.org/2000/svg" viewBox="0 0 175.64 60.03"><defs><style>.cls-1{fill:#16554f;}.cls-2{fill:#13524d;}</style></defs><g id="Layer_1-2" data-name="Layer_1"><g id="_1743479102048" data-name=" 1743479102048"><path class="cls-1" d="M12.84,14C2.59,17,.74,16.26.74,17.44s4.32.37,4.32,4.64V37.59c0,4.94-4.32,2.72-4.32,4.32,0,.44.12.75.74.75,1.61,0,4.2-.11,7.47-.11s5.87.11,7.47.11c.62,0,.74-.31.74-.75,0-1.6-4.32.62-4.32-4.32V19.91c2.72-1.85,4.69-3,6.92-3,2.65,0,3.95,1.49,3.95,4.46V37.59c0,4.94-4.33,2.72-4.33,4.33,0,.43.13.74.75.74,1.6,0,4.19-.11,7.47-.11s5.86.11,7.47.11c.61,0,.74-.31.74-.74,0-1.61-4.32.61-4.32-4.33V21c0-4.82-3.22-7-7.1-7-4.2,0-7,1.66-11.55,4.51V14Zm52.6,13c-.25-8.53-6.11-13-13-13-8,0-13.76,6.19-13.76,14.35C38.65,37.1,44.08,43,52.41,43c10.19,0,13-8.16,13-10a.41.41,0,0,0-.37-.43c-.56,0-.49,1-1.79,2.41a9.12,9.12,0,0,1-7.53,3.21c-5.13,0-9.94-3.71-10.07-11.25ZM45.68,25.48c.13-6.56,2.72-10.39,6.67-10.39,3.46,0,5.56,2.22,5.68,10.39ZM81.06,14C70.81,17,69,16.26,69,17.44s4.32.37,4.32,4.64V37.59c0,4.94-4.32,2.72-4.32,4.32,0,.44.12.75.74.75,1.6,0,4.2-.11,7.47-.11s5.86.11,7.47.11c.62,0,.74-.31.74-.75,0-1.6-4.32.62-4.32-4.32V25.71c0-1.84,1.85-6.54,4.63-6.54,2.16,0,1.54,3.46,4.88,3.46,2.53,0,3.82-1.73,3.82-4.26,0-2.79-2.16-4.4-4.93-4.4-3.28,0-5.93,2.35-8.28,8h-.12Zm26.3,0c-10.25,3-12.1,2.29-12.1,3.47s4.32.37,4.32,4.64V37.59c0,4.94-4.32,2.72-4.32,4.32,0,.44.12.75.74.75,1.6,0,4.2-.11,7.47-.11s5.86.11,7.47.11c.62,0,.74-.31.74-.75,0-1.6-4.32.62-4.32-4.32V25.71c0-1.84,1.85-6.54,4.63-6.54,2.16,0,1.54,3.46,4.88,3.46,2.53,0,3.82-1.73,3.82-4.26,0-2.79-2.16-4.4-4.94-4.4-3.27,0-5.92,2.35-8.27,8h-.12V14Zm41.55,13c-.25-8.53-6.12-13-13-13-8,0-13.77,6.19-13.77,14.35,0,8.78,5.44,14.72,13.77,14.72,10.19,0,13-8.16,13-10a.41.41,0,0,0-.37-.43c-.56,0-.5,1-1.79,2.41a9.12,9.12,0,0,1-7.54,3.21c-5.12,0-9.93-3.71-10.06-11.25Zm-19.76-1.48c.12-6.56,2.72-10.39,6.67-10.39,3.46,0,5.55,2.22,5.68,10.39ZM133.9,0l-7.77,10.76h3.08l7-6.31,7,6.31h3.09L138.72,0H133.9Zm19.51,41.24A32.19,32.19,0,0,0,163.85,43c6.85,0,11.79-3.46,11.79-10,0-10.39-16.55-7.91-16.55-14.1,0-2.6,1.79-3.83,4.32-3.83,4.45,0,6.55,3,8,5.63,1.11,2,1.17,3.15,1.67,3.15a.38.38,0,0,0,.37-.43V16.32a19.12,19.12,0,0,0-9.2-2.35c-6.73,0-10.68,4-10.68,8.29,0,10.7,16.54,8,16.54,15,0,2.78-1.79,4.64-5.62,4.64-5.06,0-7.53-4.15-9.13-7.61-1-2.1-.87-2.78-1.42-2.78-.25,0-.5.12-.5.55v9.15Z"/><polygon class="cls-2" points="131.49 60.03 0 60.03 0 54.32 131.49 54.32 131.49 60.03"/></g></g></svg>