<svg id="Layer_1" data-name="Layer 1" xmlns="http://www.w3.org/2000/svg" viewBox="0 0 216.72 32.56"><defs><style>.cls-1{fill:#3a3839;}</style></defs><g id="Layer_1-2" data-name="Layer_1"><g id="_1742982330784" data-name=" 1742982330784"><path class="cls-1" d="M109.82,30.67v1.54h7.49V7.76h-7.49V9.12a12.67,12.67,0,1,0,0,21.55Zm-6.66-16.54h.6l.14,0h0l.14,0h0l.15,0h0l.14,0h0l.14,0,.14,0,.13,0,.14,0,.14,0,.13.05.13,0h0l.13.05.13.06.13.06.12.06.12.07.13.06.12.08.11.07h0l.12.08.11.07h0l.12.09.11.08h0l.1.09h0l.11.09h0l.1.09.11.09.09.1.1.1.1.1.09.1.09.11.08.11.09.11.08.11.08.11.07.12h0l.08.12.07.12.07.12.06.12.06.13.06.12.06.13,0,.13,0,.14,0,.13,0,.13,0,.14,0,.14,0,.14,0,.14,0,.14,0,.14h0l0,.14v.15l0,.14v.89l0,.15v.14l0,.15h0l0,.14,0,.14,0,.14,0,.14,0,.14,0,.13,0,.14,0,.13,0,.13,0,.13-.06.13-.06.13-.06.12-.06.13-.07.12-.07.12-.15.23h0l-.08.12h0l-.08.11h0l-.09.11h0l-.08.11h0l-.09.1h0l-.09.11h0l-.1.1h0l-.1.1-.09.09-.11.1h0l-.31.27h0l-.11.08h0l-.11.08h0l-.11.08-.23.15h0l-.12.07h0l-.12.07h0l-.13.06-.12.07-.13.06h0l-.13.05h0l-.26.11h0l-.13,0h0l-.14.05h0l-.13,0h0l-.14,0h0l-.14,0h0a6.16,6.16,0,0,1-1.3.15h-.59l-.15,0h0l-.13,0h0l-.13,0h0l-.13,0h0l-.12,0h0l-.11,0h0l-.12,0h0l-.11,0h0l-.09,0h0l-.08,0,0,0-.09,0,0,0-.09,0,0,0h0l-.12-.05h0l-.12,0h0l-.13-.06,0,0-.09-.05h0l-.1-.05,0,0-.08-.05,0,0-.09-.05,0,0-.09-.06,0,0-.06-.05,0,0-.07-.05,0,0-.09-.07,0,0h0l0,0-.06,0h0l-.1-.08h0l-.09-.08h0l-.09-.08v0l0,0L99.1,24l0,0,0,0,0,0,0,0,0-.05-.06-.06,0,0,0-.06-.05,0,0-.05,0-.06,0,0h0l-.06-.08v0h0l-.07-.09v0l-.07-.1h0L98.31,23h0l-.07-.11h0l0-.1,0,0,0,0,0-.07,0-.06,0-.06,0-.05,0-.07,0-.07,0,0,0-.08v0c0-.07-.07-.14-.1-.22l0-.1v0h0l0-.11v0l0-.12,0-.08v-.05h0l0-.05,0-.09h0l0-.11h0l0-.08v-.07l0-.06v-.56h0v-.13h0v-.12h0V19.6h0v-.14h0v-.28h0l0-.13h0l0-.13h0l0-.13h0l0-.13,0-.11v0h0l0-.12v0h0l0-.12v0l0-.11h0l0-.11v0l0-.1c0-.13.1-.25.16-.37v0l0,0,0-.1h0v0l0-.09h0l0-.08,0,0,0-.09,0,0,0-.09,0,0,.06-.09v0l0,0,.06-.07h0l.07-.09v0l.07-.09v0l.08-.09v0l.07-.08,0,0,.07-.08,0,0,.06-.07,0,0,.06-.07,0,0,.06-.07,0,0,.07-.07,0,0,.07-.06,0,0,.08-.07h0l.1-.09h0l.1-.08h0l.09-.07h0l.09-.06,0,0,.09-.06h0l.11-.06h0l.1-.06h0l.11-.06h0l.09,0,0,0,.08,0,.05,0,.08,0h0l.36-.16h0l.11,0h0l.11,0h0l.25-.07h0l.11,0h0l.13,0h0a6.07,6.07,0,0,1,.84-.12h.42Zm4.94,8.76-.15.23Zm-2.69,2.32-.26.1Z"/><path class="cls-1" d="M53,32.21h7.45V17.93C60.46,11.36,56.69,7.5,51,7.5A9,9,0,0,0,43.63,11V7.76H36.14V32.21h7.49V18.94c0-3.33,1.84-5.17,4.69-5.17S53,15.61,53,18.94Z"/><path class="cls-1" d="M80.33,32.21h7.45V17.93C87.78,11.36,84,7.5,78.36,7.5A9,9,0,0,0,71,11V7.76H63.47V32.21H71V18.94c0-3.33,1.84-5.17,4.69-5.17s4.68,1.84,4.68,5.17Z"/><path class="cls-1" d="M154.2,32.21h7.45V17.93c0-6.57-3.9-10.43-10-10.43a9.83,9.83,0,0,0-8.24,4.56,9.11,9.11,0,0,0-8.32-4.56A8.62,8.62,0,0,0,128,10.83V7.76h-7.49V32.21H128V18.94c0-3.2,1.84-5,4.69-5s4.68,1.75,4.68,5V32.21h7.45V18.94c0-3.2,1.84-5,4.69-5s4.69,1.75,4.69,5V32.21Z"/><path class="cls-1" d="M176.2,13.42c2.49,0,4.6,1.53,4.6,4.2h-9.38a4.63,4.63,0,0,1,4.78-4.2Zm11.7,10.69h-8a4,4,0,0,1-3.9,2.36c-2.41,0-4.38-1.49-4.64-4.69h17a18.41,18.41,0,0,0,.14-2.19c0-7.44-5-12.18-12.18-12.18S163.93,12.23,163.93,20s5.17,12.57,12.36,12.57c6.09,0,10.42-3.68,11.61-8.45Z"/><path class="cls-1" d="M209.23,30.92v1.29h7.49V0h-7.49V8.87a12.67,12.67,0,1,0,0,22.05ZM203,14.13a5.77,5.77,0,0,1,0,11.53,6,6,0,0,1-1.48-.18l-.56-.19h0l-.21-.08-.11-.05a5.12,5.12,0,0,1-.52-.27l-.1-.06h0l-.09-.06-.29-.2h0a3.44,3.44,0,0,1-.36-.28h0l-.07-.06,0,0-.06-.06,0,0-.06-.06h0l-.07-.07h0l-.08-.08h0l-.07-.08h0l-.06-.07,0,0,0-.06,0,0-.06-.07h0l-.06-.08h0l-.07-.1h0l-.06-.09,0,0v0l-.06-.09h0l0-.05,0,0,0-.06h0l-.05-.08v0l-.06-.1h0l-.05-.1h0l0-.05,0-.07v0l0-.06,0,0,0-.06,0-.05,0-.07h0l-.05-.11h0l-.05-.11v0l0-.09v0l0-.06,0-.06,0-.06,0-.06,0-.07h0l0-.1,0-.13h0l0-.11h0v-.06l0-.08v0l0-.11v-.06l0-.1v-.14h0v-.87h0v-.9l0-.09v0l0-.09v-.06h0l0-.1h0l0-.1V18.3l0-.12h0l0-.13h0l0-.12h0l0-.11h0l0-.1v0l0-.08,0-.06,0-.05,0-.07,0-.05,0-.07,0-.05,0-.07,0-.06,0-.05,0-.06,0-.07,0,0,0,0,0,0,0-.07h0l.06-.1h0l.07-.1h0l.07-.11h0l.08-.1h0l.07-.09.08-.1h0l.16-.18,0,0,0-.06.06-.06,0,0,.06-.06.06-.06h0l.07-.07,0,0,.18-.15h0l.09-.07h0l.1-.07h0l.1-.08h0l.1-.07a3.28,3.28,0,0,1,.31-.2l0,0,.09,0,0,0,.08,0,0,0,.08,0,0,0,.08,0,0,0,.08,0h0l.34-.14.13-.05h0l.12,0,.24-.07h0l.24-.06h0l.11,0h0l.13,0,.26,0c.22,0,.45,0,.69,0Z"/><path class="cls-1" d="M18,32.56A12.67,12.67,0,0,0,30.67,19.9V0H23.18c0,3.75-.09,15-.09,18.76A6.24,6.24,0,0,1,18,24.91v.16H7.49V3.52H0v29Z"/></g></g></svg>